<svg width="321" height="184" viewBox="0 0 321 184" fill="none" xmlns="http://www.w3.org/2000/svg">
<path class="doom-letter" d="M234.51 0.481506L238.766 6.97977V118.363L237.198 119.707L261.403 137.861V80.0409L278.209 139.879L294.571 95.279V154.893L290.985 160.047L306.223 171.479L320.791 182.237L317.879 168.79V5.85895L319.67 0.481506H290.985L277.986 35.8912L264.092 0.481506H234.51Z" fill="black"/>
<path class="doom-letter" fill-rule="evenodd" clip-rule="evenodd" d="M317.879 100.984L238.766 48.8034V6.97977L234.51 0.481506H264.092L277.986 35.8912L290.985 0.481506H319.67L317.879 5.85895V100.984Z" fill="black"/>
<path class="doom-letter" fill-rule="evenodd" clip-rule="evenodd" d="M231.222 11.7492L221.159 0.514771H170.597L160.064 11.0478V118.016L198.687 146.34L231.222 120.358V11.7492ZM188.62 28.3691H204.304V101.399L188.62 114.741V28.3691Z" fill="black"/>
<path class="doom-letter" d="M221.159 0.514771L231.222 11.7492V48.1358L204.304 68.4253V28.3691H188.62V80.2484L160.064 101.772V11.0478L170.598 0.514771H221.159Z" fill="black"/>
<path class="doom-letter" fill-rule="evenodd" clip-rule="evenodd" d="M82.0643 11.7492L92.1277 0.514771H142.689L153.222 11.0478V118.016L114.6 146.34L82.0643 120.358V11.7492ZM124.666 28.3691H108.983V101.399L124.666 114.741V28.3691Z" fill="black"/>
<path class="doom-letter" d="M92.1277 0.514771L82.0643 11.7492V48.1358L108.982 68.4253V28.3691H124.666V80.2484L153.222 101.772V11.0478L142.689 0.514771H92.1277Z" fill="black"/>
<path class="doom-letter" fill-rule="evenodd" clip-rule="evenodd" d="M5.12998 6.36681L0.448975 0.514771H58.7314L74.6499 10.1116V125.274L3.25759 182.385L5.12998 177.939V6.36681ZM46.5608 28.1343H30.8771V118.251L46.5608 106.312V28.1343Z" fill="black"/>
<path class="doom-letter" d="M0.448975 0.514771L5.12996 6.36682V101.772L30.8771 81.9079V28.1343H46.5608V69.8061L74.6499 48.1358V10.1116L58.7314 0.514771H0.448975Z" fill="black"/>
<path d="M169.896 150.28C169.256 148.808 167.784 148.168 166.184 147.592C163.816 146.824 163.304 146.952 161.896 149.128C157.736 155.912 149.8 166.344 148.584 174.088C148.392 175.112 149.032 175.112 149.544 175.944C150.632 177.736 152.616 179.656 157.032 179.656C159.336 179.656 160.872 174.216 161.448 172.488C162.664 169.48 163.816 166.472 165.8 163.848C167.528 161.672 174.12 153.928 174.248 157.064C173.096 159.496 171.176 162.44 169.896 165.192C168.488 167.752 168.04 170.632 168.616 173.576C169.192 176.712 171.432 178.568 174.568 179.592C177.064 180.488 179.24 179.72 181.48 178.568C182.696 177.992 182.696 177.096 182.184 176.2C180.2 172.232 183.656 165.256 185.64 160.008C186.536 157.768 187.24 155.848 186.28 153.544C184.68 149.576 179.048 146.824 174.696 148.36C172.968 148.936 171.56 149.704 169.896 150.28ZM188.742 155.336C188.55 157.704 188.422 157.832 188.422 160.328C188.358 161.8 188.358 163.08 188.294 164.552C188.422 167.624 188.166 170.888 188.486 173.96C188.678 176.328 190.087 178.184 192.391 179.016C194.119 179.656 195.911 180.104 197.703 180.552C200.519 181.128 204.423 180.36 206.407 176.84C208.007 173.832 209.799 170.952 211.207 167.816C213.767 161.992 218.631 152.52 222.727 147.4C224.583 145.16 222.343 138.12 221.447 141.256C221.319 141.576 220.679 141.128 220.295 141.256C220.039 141.384 219.655 141.64 219.463 141.96C218.119 143.368 216.711 144.776 215.623 146.312C213.959 148.744 212.295 151.176 210.759 153.544C207.687 158.216 204.615 162.888 201.671 167.496C201.159 168.136 200.519 168.776 199.879 169.736C200.199 165.192 200.903 161.8 201.991 157.64C202.247 156.488 202.759 155.336 202.887 154.12C202.951 153.16 203.079 152.008 202.503 151.24C200.967 149.128 188.358 147.976 188.742 155.336ZM213.142 175.24C213.014 178.76 214.294 180.872 216.47 182.408C218.134 183.624 222.294 181 222.55 179.08C222.998 175.112 224.79 171.528 226.774 168.008C228.246 165.448 229.974 163.016 231.318 160.392C233.622 156.552 231.318 153.352 227.67 152.072C227.222 151.944 226.198 152.136 225.878 152.584C224.534 153.864 223.254 155.336 222.23 156.744C220.31 159.432 218.582 162.248 216.726 165.128C214.678 168.392 213.142 171.912 213.142 175.24ZM243.414 140.232C243.03 139.4 242.838 138.76 242.582 138.312C242.07 137.544 241.302 137.16 240.854 136.52C239.702 134.856 237.846 134.664 236.438 135.944C235.798 136.648 235.35 137.352 234.774 137.864C231.83 140.808 230.87 144.648 229.078 148.104C228.95 148.36 228.758 148.744 228.886 148.936C229.974 151.368 233.43 150.024 235.35 149.128C236.822 148.424 238.102 147.08 239.19 145.928C240.15 145.096 240.854 144.008 241.622 143.048C242.326 142.216 242.838 141.128 243.414 140.232ZM265.106 158.152C265.17 158.152 265.234 158.152 265.49 158.216C264.85 160.008 264.338 161.736 263.826 163.464C261.778 168.264 261.01 178.952 267.729 180.808C269.586 181.32 271.378 180.936 273.106 180.36C273.49 180.104 273.618 179.592 273.618 179.144C273.682 176.904 273.298 174.472 273.746 172.296C274.962 166.216 276.242 161.736 278.226 154.12C278.546 151.368 276.69 150.024 273.938 149.256C273.618 149.192 273.234 149.064 272.978 148.872C269.778 147.272 266.77 147.592 264.21 149.768C262.29 151.176 260.626 152.968 258.962 154.824C258.002 155.784 257.106 157 256.274 158.024C256.466 156.872 256.594 155.72 256.722 154.632C256.85 153.416 257.042 151.944 256.978 150.664C256.914 149.192 256.274 148.04 254.802 147.656C252.882 147.144 251.026 146.504 249.17 145.8C247.826 145.416 246.61 145.544 245.65 146.44C243.666 148.104 241.682 149.896 240.082 152.008C236.818 156.68 234.258 161.928 232.401 167.496C231.505 170.504 230.161 173.064 229.649 176.328C229.329 177.48 230.993 178.76 232.145 179.016C233.169 179.208 234.194 179.592 235.154 179.976C236.882 180.808 239.57 180.488 239.57 178.568C239.57 174.088 242.834 164.68 245.97 160.712C246.226 163.464 246.034 167.752 246.418 170.696C246.802 173.896 249.362 176.136 252.882 176.136C255.186 176.136 256.274 174.984 256.786 173.576C259.666 165.384 262.802 159.624 265.106 158.152Z" fill="#E8274B"/>
</svg>
